<svg width="612" height="280" viewBox="0 0 612 280" fill="none" xmlns="http://www.w3.org/2000/svg">
<g clip-path="url(#clip0_1569_46643)">
<path fill-rule="evenodd" clip-rule="evenodd" d="M84.8243 0.314266C67.5537 1.61245 50.2804 8.46213 36.1963 19.5976C19.4587 32.831 6.85699 53.2186 2.20669 74.5867C-0.0110881 84.7771 -0.139264 88.9375 0.0721129 143.945L0.27562 196.991L1.78056 203.899C7.73679 231.234 23.02 253.224 45.7245 267.127C54.2044 272.32 64.3291 276.228 74.9846 278.422L81.1702 279.696H306.04H530.909L536.812 278.378C555.506 274.205 570.155 266.159 583.192 252.903C591.308 244.65 596.273 237.707 601.145 227.791C606.899 216.082 609.871 205.437 611.044 192.335C611.44 187.911 611.579 168.279 611.447 135.39C611.249 86.0919 611.223 85.0794 609.982 78.637C604.073 47.9917 585.878 23.1266 559.58 9.75974C549.231 4.49971 539.376 1.65979 527.506 0.517892C521.902 -0.0216864 91.92 -0.219039 84.8243 0.314266ZM85.3865 25.4138C66.3541 27.5139 49.2055 37.7631 37.8479 53.8255C34.2899 58.8574 29.2838 69.0375 27.7502 74.3592C24.9134 84.2022 25.0523 81.2163 24.8235 137.386C24.5863 195.581 24.5913 195.679 28.1026 206.582C36.3717 232.255 58.0092 250.978 83.2609 254.31C86.5372 254.743 153.367 254.874 308.85 254.755L529.785 254.584L535.285 253.022C541.53 251.249 546.373 249.297 550.866 246.745C565.909 238.198 577.936 223.245 583.113 206.652C586.681 195.215 586.564 197.456 586.564 140.523C586.564 101.964 586.386 87.5806 585.872 84.5821C582.497 64.9183 571.292 46.8321 556.226 36.7318C548.628 31.6383 542.269 28.7979 533.439 26.5534L528.66 25.3391L308.007 25.2678C186.648 25.229 86.4686 25.2946 85.3865 25.4138ZM272.309 55.2098C251.128 60.6741 238.96 78.5583 243.062 98.197C244.526 105.208 251.478 118.167 256.28 122.834C258.073 124.578 258.407 126.372 257.321 128.432C256.962 129.112 254.051 132.577 250.852 136.132C242.14 145.812 238.323 152.1 235.202 161.912C233.132 168.421 232.624 179.307 234.055 186.485C236.031 196.394 240.794 205.011 248.217 212.106C254.995 218.585 263.262 223.007 272.309 224.995C278.086 226.264 289.33 226.29 294.815 225.047C304.554 222.84 314.699 217.751 321.462 211.678C323.296 210.031 325.257 208.707 325.819 208.736C326.38 208.766 329.071 211.332 331.797 214.44L336.755 220.091H359.236H381.718L371.434 208.256C365.777 201.746 358.804 193.725 355.937 190.431C353.07 187.137 350.823 184.186 350.943 183.872C351.062 183.558 357.925 173.291 366.194 161.057C374.462 148.822 381.35 138.491 381.5 138.099C381.715 137.535 376.875 137.386 358.432 137.386H335.092L329.841 145.647C326.954 150.19 324.442 153.848 324.259 153.775C324.076 153.702 318.315 147.167 311.457 139.255L298.986 124.867L305.649 118.151C313.023 110.716 316.756 105.255 319.105 98.4645C325.121 81.0788 311.394 59.0593 291.985 54.9611C286.593 53.8232 277.227 53.9413 272.309 55.2098ZM65.7188 125.836C65.7256 182.533 65.8504 192.958 66.557 195.998C69.2088 207.411 77.4907 215.396 91.0588 219.623L95.2245 220.92L150.458 221.095L205.692 221.269V205.28V189.291H166.026C138.766 189.291 125.584 189.092 123.876 188.656C121.24 187.982 118.755 185.898 117.912 183.654C117.618 182.869 117.411 156.304 117.423 120.77L117.444 59.2441H91.5771H65.7104L65.7188 125.836ZM409.867 60.4071L408.636 61.5701V125.095C408.636 192.898 408.612 192.241 411.397 200.319C414.031 207.961 419.661 215.092 425.382 218.033C431.776 221.321 430.022 221.232 488.724 221.228L542.715 221.223L545.921 218.636C552.208 213.562 556.591 206.125 557.635 198.759C558.072 195.68 558.01 194.234 557.283 190.574L557.029 189.291L514.174 189.278C473.794 189.266 471.189 189.205 469.07 188.218C464.519 186.097 464.593 186.384 464.404 170.424C464.289 160.667 464.435 155.862 464.872 155.034C465.221 154.372 466.562 153.344 467.851 152.75C470.084 151.721 472.214 151.67 512.935 151.658C560.438 151.644 557.588 151.886 558.712 147.779C559.031 146.611 559.294 141.012 559.295 135.336C559.299 125.566 559.236 124.956 558.116 123.928C556.979 122.884 555.179 122.831 511.756 122.556C469.368 122.289 466.518 122.208 465.576 121.253C464.673 120.337 464.556 118.739 464.406 105.252C464.243 90.5385 464.262 90.2482 465.449 89.1582C466.619 88.0836 468.065 88.0391 511.06 87.7631L555.464 87.4779L556.538 86.1312C557.129 85.3909 557.612 84.4406 557.612 84.0197C557.612 83.5987 556.347 80.7354 554.8 77.6565C550.098 68.2983 543.469 62.0418 536.161 60.0689C533.653 59.3913 523.089 59.2567 472.128 59.251C411.481 59.2441 411.089 59.2515 409.867 60.4071ZM277.346 79.7093C268.769 83.6615 268.912 95.2459 277.645 104.014C280.201 106.58 281.143 107.194 282.066 106.897C284.298 106.178 289.819 100.006 291.703 96.1225C293.278 92.8754 293.496 91.9131 293.273 89.1822C292.626 81.2602 284.485 76.4188 277.346 79.7093ZM274.399 154.453C270.934 157.232 268.353 160.92 266.851 165.239C265.249 169.844 265.628 176.435 267.735 180.612C272.896 190.841 285.434 194.464 296.393 188.892C298.994 187.569 304.072 183.319 304.072 182.464C304.072 181.757 278.747 152.509 277.983 152.333C277.581 152.24 275.968 153.195 274.399 154.453Z" fill="#0051FF"/>
</g>
<defs>
<clipPath id="clip0_1569_46643">
<rect width="612" height="280" fill="white"/>
</clipPath>
</defs>
</svg>
